<svg width="161" height="50" viewBox="0 0 161 50" fill="none" xmlns="http://www.w3.org/2000/svg">
<rect width="160.345" height="50" fill="#3E68FF"/>
<path d="M128.545 37.2C126.069 37.2 124.134 36.5222 122.739 35.1667C121.343 33.7889 120.646 31.8778 120.646 29.4333H125.237C125.237 30.5889 125.529 31.5 126.114 32.1667C126.722 32.8111 127.555 33.1333 128.612 33.1333H132.359C133.35 33.1333 134.148 32.9333 134.756 32.5333C135.386 32.1111 135.701 31.5556 135.701 30.8667V29.7333C135.701 28.6445 134.891 27.9667 133.271 27.7L127.06 26.6667C125.034 26.3333 123.493 25.7 122.435 24.7667C121.4 23.8111 120.882 22.6 120.882 21.1333V19.2667C120.882 18.0889 121.197 17.0556 121.827 16.1667C122.48 15.2556 123.391 14.5556 124.562 14.0667C125.754 13.5778 127.127 13.3333 128.68 13.3333H132.494C133.957 13.3333 135.251 13.6333 136.376 14.2333C137.502 14.8333 138.368 15.6778 138.976 16.7667C139.606 17.8333 139.921 19.0778 139.921 20.5H135.33C135.33 19.5667 135.071 18.8222 134.554 18.2667C134.036 17.6889 133.35 17.4 132.494 17.4H128.68C127.735 17.4 126.97 17.6 126.384 18C125.822 18.4 125.54 18.9333 125.54 19.6V20.5C125.54 21.6111 126.317 22.3 127.87 22.5667L134.047 23.6333C136.095 23.9889 137.659 24.6222 138.739 25.5333C139.82 26.4222 140.36 27.5778 140.36 29V31.2C140.36 32.3778 140.022 33.4222 139.347 34.3333C138.694 35.2445 137.772 35.9556 136.579 36.4667C135.386 36.9556 134.002 37.2 132.427 37.2H128.545Z" fill="white"/>
<path d="M103.267 17.6H95.7731V13.6H115.42V17.6H107.926V36.9333H103.267V17.6Z" fill="white"/>
<path d="M78.7446 17.6H71.2506V13.6H90.8971V17.6H83.403V36.9333H78.7446V17.6Z" fill="white"/>
<path d="M50.9651 36.9333C49.9974 36.9333 49.2098 36.6445 48.6021 36.0667C47.9945 35.4889 47.6907 34.7333 47.6907 33.8V13.6H65.7168V17.6H52.3492V23H64.7041V27H52.3492V32.9333H65.7168V36.9333H50.9651Z" fill="white"/>
<path d="M19.4102 13.6H23.5622L34.9045 29.4667V13.6H39.4617V36.9333H35.3096L23.9673 21.0667V36.9333H19.4102V13.6Z" fill="white"/>
</svg>
