<svg width="32" height="32" viewBox="0 0 32 32" fill="none" xmlns="http://www.w3.org/2000/svg">
<mask id="mask0_0_1144" style="mask-type:alpha" maskUnits="userSpaceOnUse" x="0" y="0" width="32" height="32">
<rect width="32" height="32" rx="16" fill="#2BACEF"/>
</mask>
<g mask="url(#mask0_0_1144)">
<rect width="32" height="32" transform="translate(0.177612)" fill="#2AABEE"/>
<path d="M16.1776 32C25.0142 32 32.1776 24.8366 32.1776 16C32.1776 7.16344 25.0142 0 16.1776 0C7.34106 0 0.177612 7.16344 0.177612 16C0.177612 24.8366 7.34106 32 16.1776 32Z" fill="#2AABEE"/>
<path fill-rule="evenodd" clip-rule="evenodd" d="M7.42013 15.8312C12.0845 13.799 15.1947 12.4593 16.751 11.812C21.1943 9.96384 22.1176 9.64279 22.7194 9.63219C22.8518 9.62986 23.1477 9.66266 23.3394 9.81821C23.5013 9.94956 23.5458 10.127 23.5671 10.2515C23.5885 10.376 23.615 10.6597 23.5939 10.8814C23.3531 13.4114 22.3112 19.5509 21.7812 22.3846C21.5569 23.5836 21.1153 23.9856 20.6877 24.0249C19.7586 24.1104 19.053 23.4109 18.1531 22.821C16.7449 21.8979 15.9493 21.3233 14.5824 20.4225C13.0027 19.3815 14.0268 18.8093 14.927 17.8743C15.1626 17.6296 19.2565 13.9059 19.3357 13.5681C19.3456 13.5258 19.3548 13.3684 19.2613 13.2852C19.1677 13.2021 19.0297 13.2305 18.93 13.2531C18.7888 13.2852 16.5391 14.7721 12.1811 17.7139C11.5426 18.1524 10.9642 18.366 10.446 18.3548C9.8747 18.3425 8.77578 18.0318 7.95885 17.7662C6.95685 17.4405 6.16048 17.2683 6.22983 16.7152C6.26595 16.427 6.66271 16.1324 7.42013 15.8312Z" fill="white"/>
</g>
</svg>
